<svg width="366" height="176" viewBox="0 0 366 176" fill="none" xmlns="http://www.w3.org/2000/svg">
<g filter="url(#filter0_d_617_125)">
<rect x="6" y="6" width="350" height="160" rx="10" fill="#060E1E"/>
<g filter="url(#filter1_dd_617_125)">
<path d="M118.375 108.233H106.528L109.341 91.1875H93.6591L90.8466 108.233H79L82.359 88H121.734L118.375 108.233Z" fill="#00D1FF"/>
<path d="M139.511 93.4673C139.895 95.1577 140.641 96.4219 141.749 97.2599C142.871 98.098 144.327 98.517 146.116 98.517C147.31 98.517 148.403 98.375 149.398 98.0909C150.406 97.8068 151.301 97.402 152.082 96.8764C152.878 96.3367 153.553 95.6974 154.107 94.9588C154.675 94.206 155.108 93.375 155.406 92.4659H167.338C166.884 94.3125 166.074 96.2017 164.909 98.1335C163.744 100.051 162.239 101.82 160.392 103.439C158.545 105.044 156.372 106.344 153.872 107.338C151.372 108.332 148.56 108.83 145.435 108.83C141.344 108.83 137.814 107.935 134.845 106.145C131.891 104.355 129.746 101.741 128.411 98.304C127.296 95.4048 126.935 91.9702 127.326 88H139.427C139.158 90.1578 139.186 91.9802 139.511 93.4673Z" fill="#00D1FF"/>
<path d="M193.721 108.233H182.045L185.384 88H197.06L193.721 108.233Z" fill="#00D1FF"/>
<path d="M223.151 108.233H211.305L214.664 88H247.143C245.627 89.6696 243.786 90.9902 241.62 91.9617L247.782 108.233H234.913L229.642 93.8295H225.558L223.151 108.233Z" fill="#00D1FF"/>
<path d="M265.435 98.6875H283.077L281.457 108.233H251.969L255.328 88H267.198L265.435 98.6875Z" fill="#00D1FF"/>
<path fill-rule="evenodd" clip-rule="evenodd" d="M157.366 80.9602H169.213C169.426 78.2472 169.163 75.8395 168.425 73.7372C167.686 71.6349 166.535 69.8665 164.973 68.4318C163.425 66.983 161.514 65.8821 159.241 65.1293C156.983 64.3764 154.426 64 151.571 64C147.793 64 144.227 64.8168 140.875 66.4503C137.523 68.0838 134.675 70.5128 132.331 73.7372C130.277 76.5634 128.817 79.9843 127.952 84H140.281C140.698 82.633 141.223 81.3924 141.855 80.2784C142.935 78.3608 144.291 76.8906 145.925 75.8679C147.558 74.831 149.412 74.3125 151.486 74.3125C152.565 74.3125 153.496 74.4688 154.277 74.7812C155.058 75.0938 155.69 75.5483 156.173 76.1449C156.656 76.7273 156.997 77.4233 157.196 78.233C157.395 79.0426 157.452 79.9517 157.366 80.9602ZM215.328 84H227.2L228.861 74.0568H233.038C234.401 74.0568 235.545 74.2486 236.468 74.6321C237.391 75.0014 238.052 75.5838 238.449 76.3793C238.847 77.1605 238.947 78.1761 238.748 79.4261C238.549 80.6761 238.123 81.6847 237.469 82.4517C236.882 83.1285 236.134 83.6446 235.225 84H249.764C250.386 82.6142 250.834 81.0896 251.106 79.4261C251.617 76.3295 251.383 73.6733 250.403 71.4574C249.423 69.2415 247.817 67.544 245.587 66.3651C243.357 65.1861 240.623 64.5966 237.384 64.5966H218.549L215.328 84ZM187.67 74.142L186.043 84H197.72L199.346 74.142H212.471L214.09 64.5966H176.164L174.545 74.142H187.67ZM267.858 84L271.06 64.5966H259.213L255.992 84H267.858ZM125.619 64.5966L122.398 84H83.0229L86.2442 64.5966H98.0908L95.2783 81.642H110.96L113.773 64.5966H125.619Z" fill="#FF0054"/>
</g>
</g>
<defs>
<filter id="filter0_d_617_125" x="0" y="0" width="366" height="176" filterUnits="userSpaceOnUse" color-interpolation-filters="sRGB">
<feFlood flood-opacity="0" result="BackgroundImageFix"/>
<feColorMatrix in="SourceAlpha" type="matrix" values="0 0 0 0 0 0 0 0 0 0 0 0 0 0 0 0 0 0 127 0" result="hardAlpha"/>
<feOffset dx="2" dy="2"/>
<feGaussianBlur stdDeviation="4"/>
<feComposite in2="hardAlpha" operator="out"/>
<feColorMatrix type="matrix" values="0 0 0 0 0 0 0 0 0 0 0 0 0 0 0 0 0 0 0.25 0"/>
<feBlend mode="normal" in2="BackgroundImageFix" result="effect1_dropShadow_617_125"/>
<feBlend mode="normal" in="SourceGraphic" in2="effect1_dropShadow_617_125" result="shape"/>
</filter>
<filter id="filter1_dd_617_125" x="54" y="39" width="254.077" height="94.8295" filterUnits="userSpaceOnUse" color-interpolation-filters="sRGB">
<feFlood flood-opacity="0" result="BackgroundImageFix"/>
<feColorMatrix in="SourceAlpha" type="matrix" values="0 0 0 0 0 0 0 0 0 0 0 0 0 0 0 0 0 0 127 0" result="hardAlpha"/>
<feOffset/>
<feGaussianBlur stdDeviation="12.5"/>
<feComposite in2="hardAlpha" operator="out"/>
<feColorMatrix type="matrix" values="0 0 0 0 1 0 0 0 0 1 0 0 0 0 1 0 0 0 0.2 0"/>
<feBlend mode="normal" in2="BackgroundImageFix" result="effect1_dropShadow_617_125"/>
<feColorMatrix in="SourceAlpha" type="matrix" values="0 0 0 0 0 0 0 0 0 0 0 0 0 0 0 0 0 0 127 0" result="hardAlpha"/>
<feOffset dy="4"/>
<feGaussianBlur stdDeviation="2"/>
<feComposite in2="hardAlpha" operator="out"/>
<feColorMatrix type="matrix" values="0 0 0 0 0 0 0 0 0 0 0 0 0 0 0 0 0 0 0.25 0"/>
<feBlend mode="normal" in2="effect1_dropShadow_617_125" result="effect2_dropShadow_617_125"/>
<feBlend mode="normal" in="SourceGraphic" in2="effect2_dropShadow_617_125" result="shape"/>
</filter>
</defs>
</svg>
