<svg width="350" height="160" viewBox="0 0 350 160" fill="none" xmlns="http://www.w3.org/2000/svg">
<rect width="350" height="160" rx="10" fill="#332236"/>
<g filter="url(#filter0_d_604_12)">
<path d="M71.4622 101L78.7065 57.3636H90.5531L87.7406 74.4091H103.422L106.235 57.3636H118.082L110.837 101H98.9906L101.803 83.9545H86.1213L83.3088 101H71.4622ZM161.675 73.7273H149.829C149.914 72.7187 149.857 71.8097 149.658 71C149.459 70.1903 149.118 69.4943 148.635 68.9119C148.153 68.3153 147.52 67.8608 146.739 67.5483C145.958 67.2358 145.028 67.0795 143.948 67.0795C141.874 67.0795 140.02 67.598 138.387 68.6349C136.753 69.6577 135.397 71.1278 134.317 73.0455C133.238 74.9489 132.471 77.2216 132.016 79.8636C131.618 82.4205 131.604 84.544 131.974 86.2344C132.357 87.9247 133.103 89.1889 134.211 90.027C135.333 90.8651 136.789 91.2841 138.579 91.2841C139.772 91.2841 140.866 91.142 141.86 90.858C142.868 90.5739 143.763 90.169 144.545 89.6435C145.34 89.1037 146.015 88.4645 146.569 87.7259C147.137 86.973 147.57 86.142 147.868 85.233H159.8C159.346 87.0795 158.536 88.9687 157.371 90.9006C156.206 92.8182 154.701 94.5866 152.854 96.206C151.008 97.8111 148.834 99.1108 146.334 100.105C143.834 101.099 141.022 101.597 137.897 101.597C133.806 101.597 130.276 100.702 127.307 98.9119C124.353 97.1222 122.208 94.5085 120.873 91.071C119.552 87.6335 119.289 83.4432 120.084 78.5C120.88 73.7273 122.449 69.7287 124.793 66.5043C127.137 63.2798 129.985 60.8509 133.337 59.2173C136.689 57.5838 140.255 56.767 144.033 56.767C146.888 56.767 149.445 57.1435 151.704 57.8963C153.976 58.6491 155.887 59.75 157.435 61.1989C158.998 62.6335 160.148 64.402 160.887 66.5043C161.626 68.6065 161.888 71.0142 161.675 73.7273ZM167.007 66.9091L168.627 57.3636H206.553L204.933 66.9091H191.808L186.183 101H174.507L180.132 66.9091H167.007ZM203.767 101L211.011 57.3636H229.846C233.085 57.3636 235.819 57.9531 238.05 59.1321C240.28 60.3111 241.885 62.0085 242.865 64.2244C243.845 66.4403 244.079 69.0966 243.568 72.1932C243.057 75.3182 241.927 77.9531 240.18 80.098C238.447 82.2287 236.238 83.848 233.554 84.956C230.883 86.0497 227.886 86.5966 224.562 86.5966H213.312L214.846 77.392H223.71C225.102 77.392 226.324 77.2216 227.375 76.8807C228.426 76.5256 229.278 75.9716 229.932 75.2188C230.585 74.4517 231.011 73.4432 231.21 72.1932C231.409 70.9432 231.309 69.9276 230.912 69.1463C230.514 68.3509 229.854 67.7685 228.93 67.3991C228.007 67.0156 226.863 66.8239 225.5 66.8239H221.324L215.613 101H203.767ZM232.659 80.9716L240.244 101H227.375L220.045 80.9716H232.659ZM244.431 101L251.675 57.3636H263.522L257.897 91.4545H275.539L273.92 101H244.431Z" fill="url(#paint0_linear_604_12)" shape-rendering="crispEdges"/>
</g>
<defs>
<filter id="filter0_d_604_12" x="65.4622" y="50.767" width="220.077" height="60.8296" filterUnits="userSpaceOnUse" color-interpolation-filters="sRGB">
<feFlood flood-opacity="0" result="BackgroundImageFix"/>
<feColorMatrix in="SourceAlpha" type="matrix" values="0 0 0 0 0 0 0 0 0 0 0 0 0 0 0 0 0 0 127 0" result="hardAlpha"/>
<feOffset dx="2" dy="2"/>
<feGaussianBlur stdDeviation="4"/>
<feComposite in2="hardAlpha" operator="out"/>
<feColorMatrix type="matrix" values="0 0 0 0 0 0 0 0 0 0 0 0 0 0 0 0 0 0 0.25 0"/>
<feBlend mode="normal" in2="BackgroundImageFix" result="effect1_dropShadow_604_12"/>
<feBlend mode="normal" in="SourceGraphic" in2="effect1_dropShadow_604_12" result="shape"/>
</filter>
<linearGradient id="paint0_linear_604_12" x1="175" y1="43" x2="175" y2="116" gradientUnits="userSpaceOnUse">
<stop stop-color="#FF0054"/>
<stop offset="0.466044" stop-color="#FF0054"/>
<stop offset="0.466144" stop-color="#FF5130" stop-opacity="0"/>
<stop offset="0.51823" stop-color="#FF821A" stop-opacity="0"/>
<stop offset="0.51833" stop-color="#FFBD00"/>
<stop offset="1" stop-color="#FFBD00"/>
</linearGradient>
</defs>
</svg>
