<svg width="350" height="160" viewBox="0 0 350 160" fill="none" xmlns="http://www.w3.org/2000/svg">
<rect width="350" height="160" rx="10" fill="#332236"/>
<g filter="url(#filter0_d_617_125)">
<path d="M112.375 102.233H100.528L103.341 85.1875H87.6591L84.8466 102.233H73L76.359 82H115.734L112.375 102.233Z" fill="#FFBD00"/>
<path d="M133.511 87.4673C133.895 89.1577 134.641 90.4219 135.749 91.2599C136.871 92.098 138.327 92.517 140.116 92.517C141.31 92.517 142.403 92.375 143.398 92.0909C144.406 91.8068 145.301 91.402 146.082 90.8764C146.878 90.3367 147.553 89.6974 148.107 88.9588C148.675 88.206 149.108 87.375 149.406 86.4659H161.338C160.884 88.3125 160.074 90.2017 158.909 92.1335C157.744 94.0511 156.239 95.8196 154.392 97.4389C152.545 99.044 150.372 100.344 147.872 101.338C145.372 102.332 142.56 102.83 139.435 102.83C135.344 102.83 131.814 101.935 128.845 100.145C125.891 98.3551 123.746 95.7415 122.411 92.304C121.296 89.4048 120.935 85.9702 121.326 82H133.427C133.158 84.1578 133.186 85.9802 133.511 87.4673Z" fill="#FFBD00"/>
<path d="M187.721 102.233H176.045L179.384 82H191.06L187.721 102.233Z" fill="#FFBD00"/>
<path d="M217.151 102.233H205.305L208.664 82H241.143C239.627 83.6696 237.786 84.9902 235.62 85.9617L241.782 102.233H228.913L223.642 87.8295H219.558L217.151 102.233Z" fill="#FFBD00"/>
<path d="M259.435 92.6875H277.077L275.457 102.233H245.969L249.328 82H261.198L259.435 92.6875Z" fill="#FFBD00"/>
<path fill-rule="evenodd" clip-rule="evenodd" d="M151.366 74.9602H163.213C163.426 72.2472 163.163 69.8395 162.425 67.7372C161.686 65.6349 160.535 63.8665 158.973 62.4318C157.425 60.983 155.514 59.8821 153.241 59.1293C150.983 58.3764 148.426 58 145.571 58C141.793 58 138.227 58.8168 134.875 60.4503C131.523 62.0838 128.675 64.5128 126.331 67.7372C124.277 70.5634 122.817 73.9843 121.952 78H134.281C134.698 76.633 135.223 75.3924 135.855 74.2784C136.935 72.3608 138.291 70.8906 139.925 69.8679C141.558 68.831 143.412 68.3125 145.486 68.3125C146.565 68.3125 147.496 68.4688 148.277 68.7812C149.058 69.0938 149.69 69.5483 150.173 70.1449C150.656 70.7273 150.997 71.4233 151.196 72.233C151.395 73.0426 151.452 73.9517 151.366 74.9602ZM209.328 78H221.2L222.861 68.0568H227.038C228.401 68.0568 229.545 68.2486 230.468 68.6321C231.391 69.0014 232.052 69.5838 232.449 70.3793C232.847 71.1605 232.947 72.1761 232.748 73.4261C232.549 74.6761 232.123 75.6847 231.469 76.4517C230.882 77.1285 230.134 77.6446 229.225 78H243.764C244.386 76.6142 244.834 75.0896 245.106 73.4261C245.617 70.3295 245.383 67.6733 244.403 65.4574C243.423 63.2415 241.817 61.544 239.587 60.3651C237.357 59.1861 234.623 58.5966 231.384 58.5966H212.549L209.328 78ZM181.67 68.142L180.043 78H191.72L193.346 68.142H206.471L208.09 58.5966H170.164L168.545 68.142H181.67ZM261.858 78L265.06 58.5966H253.213L249.992 78H261.858ZM119.619 58.5966L116.398 78H77.0229L80.2442 58.5966H92.0908L89.2783 75.642H104.96L107.773 58.5966H119.619Z" fill="#FF0054"/>
</g>
<defs>
<filter id="filter0_d_617_125" x="67" y="52" width="220.077" height="60.8295" filterUnits="userSpaceOnUse" color-interpolation-filters="sRGB">
<feFlood flood-opacity="0" result="BackgroundImageFix"/>
<feColorMatrix in="SourceAlpha" type="matrix" values="0 0 0 0 0 0 0 0 0 0 0 0 0 0 0 0 0 0 127 0" result="hardAlpha"/>
<feOffset dx="2" dy="2"/>
<feGaussianBlur stdDeviation="4"/>
<feComposite in2="hardAlpha" operator="out"/>
<feColorMatrix type="matrix" values="0 0 0 0 0 0 0 0 0 0 0 0 0 0 0 0 0 0 0.25 0"/>
<feBlend mode="normal" in2="BackgroundImageFix" result="effect1_dropShadow_617_125"/>
<feBlend mode="normal" in="SourceGraphic" in2="effect1_dropShadow_617_125" result="shape"/>
</filter>
</defs>
</svg>
